<svg xmlns="http://www.w3.org/2000/svg" xmlns:xlink="http://www.w3.org/1999/xlink" version="1.1" width="1000" height="1000" viewBox="0 0 1000 1000" xml:space="preserve">
<desc>Created with Fabric.js 3.5.0</desc>
<defs>
</defs>
<rect x="0" y="0" width="100%" height="100%" fill="rgba(245,245,245,0)"/>
<g transform="matrix(-1.9666 0 0 1.9666 500 500)" id="501680">
<g style="" vector-effect="non-scaling-stroke">
		<g transform="matrix(1 0 0 1 65.275 -159.5955)" id="polygon5">
<polygon style="stroke: none; stroke-width: 1; stroke-dasharray: none; stroke-linecap: butt; stroke-dashoffset: 0; stroke-linejoin: miter; stroke-miterlimit: 4; is-custom-font: none; font-file-url: none; fill: rgb(248,218,57); fill-rule: evenodd; opacity: 1;" points="-1.425,-16.436 -1.425,-16.119 -1.275,-15.96 -1.275,-15.325 -1.115,-15.007 -1.115,-14.372 -0.955,-14.213 -0.795,-13.737 -0.475,-13.102 -0.315,-12.466 -0.165,-12.148 -0.165,-11.672 -0.005,-11.196 0.315,-10.719 0.635,-9.767 0.635,-9.131 0.955,-8.814 1.115,-8.337 1.425,-7.702 1.585,-7.226 1.745,-6.908 1.745,-6.114 2.065,-5.638 2.225,-5.162 2.225,-4.685 2.385,-4.05 2.385,-3.574 2.545,-3.097 2.855,-2.621 3.175,-1.667 3.175,-1.35 3.655,-0.397 3.815,0.079 4.135,0.714 4.445,1.032 4.605,1.35 4.925,1.668 4.925,1.826 5.245,1.985 5.395,2.302 5.715,2.62 5.875,2.62 6.035,2.779 6.825,2.779 6.985,2.62 6.985,2.62 7.145,2.62 3.815,16.436 3.815,16.277 3.495,16.277 3.175,16.118 2.385,15.96 2.225,15.8 0.475,15.007 -1.115,13.895 -1.745,13.26 -2.385,12.783 -3.015,11.989 -3.655,11.354 -4.125,10.718 -4.445,9.925 -5.085,9.29 -5.245,8.654 -6.035,6.908 -6.195,6.273 -6.515,5.478 -6.985,3.573 -6.985,1.985 -7.145,1.35 -7.145,-2.144 -6.985,-2.779 -6.985,-4.844 -6.825,-5.479 -6.825,-6.114 -6.515,-7.067 -6.515,-7.384 -6.195,-7.861 -6.035,-8.497 -5.715,-9.131 -5.405,-9.608 -5.245,-10.084 -4.925,-10.719 -4.605,-11.037 -4.445,-11.672 -4.125,-11.99 -3.975,-12.466 -3.655,-12.942 -3.495,-13.418 -3.175,-13.737 -3.015,-14.054 -2.695,-14.372 -2.695,-14.689 -2.385,-15.007 -2.385,-15.166 -2.065,-15.483 -1.905,-15.801 -1.905,-15.96 -1.585,-16.277 -1.585,-16.436 "/>
</g>
		<g transform="matrix(1 0 0 1 93.945 -162.454)" id="polygon7">
<polygon style="stroke: none; stroke-width: 1; stroke-dasharray: none; stroke-linecap: butt; stroke-dashoffset: 0; stroke-linejoin: miter; stroke-miterlimit: 4; is-custom-font: none; font-file-url: none; fill: rgb(248,218,57); fill-rule: evenodd; opacity: 1;" points="-23.275,12.3065 -21.845,5.3195 -21.365,5.4785 -18.985,5.4785 -18.665,5.3195 -17.715,5.3195 -17.235,5.1605 -16.595,4.8435 -16.125,4.8435 -15.805,4.6845 -14.855,4.6845 -14.535,4.3665 -13.585,4.0495 -13.265,3.8905 -12.785,3.8905 -12.475,3.5725 -11.995,3.2555 -11.675,3.0965 -11.205,2.9375 -10.725,2.6195 -10.405,2.3025 -10.085,2.1435 -9.935,2.1435 -9.455,1.8255 -9.135,1.5085 -8.655,1.1915 -7.865,0.3975 -6.915,-0.2385 -6.595,-0.5555 -6.115,-1.1915 -5.795,-1.5095 -5.165,-1.9855 -4.845,-2.4615 -4.845,-2.6205 -4.375,-2.9375 -4.055,-3.5735 -3.575,-4.0495 -3.255,-4.6855 -2.625,-5.3195 -1.355,-7.0665 -1.035,-8.0195 -0.405,-8.6545 -0.405,-8.8135 0.395,-10.2435 0.715,-11.0365 1.345,-11.8305 1.505,-12.6245 2.145,-13.5775 2.455,-14.6885 3.095,-15.6425 3.095,-15.8015 3.255,-16.4365 4.205,-18.5005 4.995,-20.7235 24.855,-12.7835 24.695,-12.6245 23.585,-9.9255 22.945,-8.8135 22.305,-7.3845 18.185,-0.5555 17.385,0.3975 16.755,1.5085 15.955,2.4615 15.955,2.4615 12.945,6.4315 8.965,10.4015 8.335,10.8775 8.175,11.0365 6.585,12.3065 5.795,13.1005 4.845,13.5765 3.255,14.8475 0.715,16.2765 -0.085,16.5945 -1.035,17.2295 -1.835,17.3885 -1.835,17.5475 -5.165,18.9765 -6.915,19.2945 -7.865,19.7705 -9.455,20.0885 -10.405,20.0885 -11.035,20.4055 -11.995,20.4055 -12.785,20.5645 -13.745,20.5645 -14.535,20.7235 -16.915,20.7235 -17.715,20.5645 -18.345,20.5645 -19.145,20.4055 -19.775,20.4055 -22.795,19.7705 -23.425,19.7705 -24.065,19.4535 -24.855,19.2945 -23.275,12.3065 "/>
</g>
		<g transform="matrix(1 0 0 1 93.785 -203.1865)" id="polygon9">
<polygon style="stroke: none; stroke-width: 1; stroke-dasharray: none; stroke-linecap: butt; stroke-dashoffset: 0; stroke-linejoin: miter; stroke-miterlimit: 4; is-custom-font: none; font-file-url: none; fill: rgb(248,218,57); fill-rule: evenodd; opacity: 1;" points="15.165,24.137 5.155,20.168 5.635,18.897 5.795,18.103 5.955,17.627 5.955,17.151 6.275,15.404 6.275,14.768 6.425,13.816 6.425,11.275 6.275,10.798 6.275,10.004 5.955,8.575 5.955,7.94 5.635,7.146 5.475,6.51 5.155,5.717 5.155,5.558 5.005,5.24 4.845,4.605 4.205,3.335 3.885,2.859 3.415,2.382 3.255,1.588 2.775,1.27 2.455,0.635 2.305,0.635 1.985,0.318 1.665,-0.159 0.075,-1.747 -0.555,-2.064 -0.875,-2.383 -1.355,-2.7 -1.675,-2.7 -1.675,-2.7 -2.305,-3.176 -2.625,-3.335 -3.095,-3.494 -3.415,-3.494 -3.895,-3.653 -4.215,-3.811 -5.005,-3.811 -5.485,-3.97 -6.435,-3.97 -6.755,-3.811 -7.545,-3.811 -8.185,-3.494 -8.495,-3.494 -8.975,-3.335 -8.975,-3.176 -9.455,-3.017 -9.925,-2.7 -10.245,-2.541 -11.195,-1.906 -12.155,-0.953 -12.625,-0.635 -28.825,-18.262 -26.765,-20.326 -21.045,-24.138 -19.455,-24.773 -18.025,-25.567 -17.715,-25.567 -16.435,-26.202 -11.835,-27.314 -10.085,-27.473 -8.495,-27.79 -6.915,-27.949 -5.325,-27.949 -2.625,-27.632 -2.305,-27.632 -0.715,-27.314 0.875,-27.155 5.155,-25.726 9.285,-23.82 14.215,-20.485 16.435,-18.58 21.045,-13.18 21.205,-12.863 21.995,-11.752 22.785,-10.322 23.745,-9.211 26.285,-3.653 26.605,-2.223 27.555,0.635 28.665,6.829 28.665,8.417 28.825,10.004 28.665,11.275 28.665,13.339 28.505,14.927 27.875,18.262 27.715,19.85 27.235,21.438 26.915,23.026 26.605,23.661 26.285,24.773 25.015,27.949 15.165,24.137 "/>
</g>
		<g transform="matrix(1 0 0 1 -8.02 -130.0575)" id="polygon11">
<polygon style="stroke: none; stroke-width: 1; stroke-dasharray: none; stroke-linecap: butt; stroke-dashoffset: 0; stroke-linejoin: miter; stroke-miterlimit: 4; is-custom-font: none; font-file-url: none; fill: rgb(248,218,57); fill-rule: evenodd; opacity: 1;" points="66.31,-53.914 64.4,-53.914 60.59,-52.961 54.71,-50.738 54.55,-50.738 52.81,-50.579 43.75,-48.039 43.12,-48.039 40.89,-47.245 38.67,-46.768 34.23,-45.18 32.96,-44.545 31.84,-44.386 22.47,-40.575 22.31,-40.416 5,-31.841 2.94,-30.412 2.62,-30.253 -5.8,-24.377 -13.26,-17.866 -14.05,-17.39 -19.61,-11.673 -21.2,-9.608 -21.68,-9.45 -23.27,-7.068 -25.17,-4.845 -31.68,5.632 -32.64,7.702 -33.11,8.492 -36.77,17.232 -36.77,17.382 -39.63,27.232 -39.78,27.232 -41.53,37.402 -42.48,50.102 -42.33,58.832 -66.31,59.472 -66.31,44.702 -65.19,35.012 -65.19,34.222 -62.65,21.672 -62.49,21.362 -58.68,9.292 -55.35,1.662 -49.47,-8.974 -45.82,-14.214 -44.87,-15.167 -42.64,-18.343 -37.72,-23.901 -29.62,-31.523 -26.76,-33.588 -24.06,-35.97 -15.33,-41.845 -6.11,-46.927 5.48,-51.849 5.48,-51.849 17.07,-55.502 17.39,-55.661 29.62,-58.361 38.83,-59.472 52.33,-59.472 54.39,-59.155 54.55,-59.155 62.34,-56.455 63.61,-55.502 65.51,-54.549 66.31,-53.914 "/>
</g>
		<g transform="matrix(1 0 0 1 -8.655 -24.3805)" id="polygon13">
<polygon style="stroke: none; stroke-width: 1; stroke-dasharray: none; stroke-linecap: butt; stroke-dashoffset: 0; stroke-linejoin: miter; stroke-miterlimit: 4; is-custom-font: none; font-file-url: none; fill: rgb(248,218,57); fill-rule: evenodd; opacity: 1;" points="-64.245,-20.325 -64.245,-20.485 -63.445,-20.485 -62.175,-20.795 -61.065,-20.795 -58.845,-21.115 -55.985,-21.115 -54.395,-21.435 -52.645,-21.435 -50.745,-21.755 -46.615,-21.915 -37.715,-21.115 -35.335,-21.115 -30.095,-20.485 -29.465,-20.485 0.715,-16.035 3.575,-15.245 9.445,-14.285 28.665,-9.205 45.025,-3.015 52.965,1.275 56.465,3.975 60.905,8.735 62.975,12.865 63.765,15.245 64.245,17.785 64.245,21.125 64.085,21.915 54.075,20.175 43.755,19.535 43.115,18.745 43.115,18.585 42.485,17.945 36.445,13.975 33.115,12.235 31.685,11.755 31.205,11.435 1.035,0.165 -0.235,0.005 -48.045,-13.655 -63.925,-20.325 -64.245,-20.325 "/>
</g>
		<g transform="matrix(1 0 0 1 7.15 58.9145)" id="polygon15">
<polygon style="stroke: none; stroke-width: 1; stroke-dasharray: none; stroke-linecap: butt; stroke-dashoffset: 0; stroke-linejoin: miter; stroke-miterlimit: 4; is-custom-font: none; font-file-url: none; fill: rgb(248,218,57); fill-rule: evenodd; opacity: 1;" points="38.27,-63.12 48.28,-61.38 46.85,-54.87 46.06,-53.12 45.9,-52.17 38.27,-35.17 37.96,-34.86 30.17,-20.72 29.54,-19.93 10.64,8.81 10.32,9.45 -21.92,49.31 -23.51,50.74 -24.94,52.33 -26.68,53.75 -28.11,55.18 -33.99,59.63 -35.58,60.58 -37.01,61.7 -40.5,63.12 -42.57,63.76 -48.28,40.26 -47.33,39.78 -46.7,39.3 -45.9,38.51 -44.95,37.87 -40.34,33.59 -40.18,33.59 -36.21,29.3 -34.62,27.87 -30.02,22.79 -29.22,21.68 -28.43,20.88 -18.9,8.97 -18.42,8.81 19.06,-45.18 19.21,-45.65 24.93,-55.98 26.52,-59.63 26.68,-60.42 27.16,-61.53 27.47,-62.65 27.95,-63.76 "/>
</g>
		<g transform="matrix(1 0 0 1 30.335 -118.547)" id="polygon17">
<polygon style="stroke: none; stroke-width: 1; stroke-dasharray: none; stroke-linecap: butt; stroke-dashoffset: 0; stroke-linejoin: miter; stroke-miterlimit: 4; is-custom-font: none; font-file-url: none; fill: rgb(248,218,57); fill-rule: evenodd; opacity: 1;" points="17.155,-26.0415 16.995,-26.0415 16.995,-25.5655 16.675,-24.9305 16.355,-24.6125 16.195,-24.1365 16.195,-23.6605 15.725,-23.1835 14.615,-20.4845 14.455,-19.8485 13.335,-17.3085 11.915,-14.9255 10.795,-13.4965 9.215,-10.9585 8.575,-10.1585 8.575,-9.8485 8.255,-9.2085 6.985,-7.4585 6.515,-6.6685 6.035,-5.5585 5.395,-4.7585 5.085,-3.8085 4.445,-2.8585 4.285,-2.8585 4.125,-2.0685 2.695,0.4815 1.425,3.9715 1.275,4.2915 1.275,4.7615 0.955,5.5615 0.635,7.1515 0.635,7.7815 0.315,9.0515 0.315,9.6915 0.475,10.1615 0.475,10.6415 0.635,11.2715 0.635,11.5915 0.795,12.0715 0.955,12.3915 0.955,12.8615 1.745,13.6615 1.745,13.9715 1.905,13.9715 2.535,14.6115 -12.705,26.0415 -12.865,25.8915 -13.185,25.7315 -13.505,24.6115 -14.455,23.3415 -16.675,17.3115 -17.155,12.8615 -17.155,11.4315 -16.835,8.8915 -16.835,8.4215 -16.675,7.1515 -16.045,4.4515 -14.135,-0.4785 -13.185,-2.3785 -12.705,-2.8585 -12.075,-3.8085 -10.805,-6.1885 -7.625,-10.1585 -6.985,-10.7985 -6.825,-11.1185 -5.085,-12.8615 -4.285,-13.8145 -1.745,-16.3555 0.005,-17.6255 0.005,-17.7845 1.745,-19.0545 2.535,-19.8485 4.285,-21.1185 5.245,-21.5955 6.825,-22.8665 7.625,-23.1835 7.625,-23.1835 11.115,-24.4535 11.915,-24.6125 12.705,-24.9305 15.085,-25.5655 15.405,-25.7245 16.035,-25.7245 16.355,-25.8825 16.675,-25.8825 16.835,-26.0415 "/>
</g>
		<g transform="matrix(1 0 0 1 62.815 -84.2455)" id="polygon19">
<polygon style="stroke: none; stroke-width: 1; stroke-dasharray: none; stroke-linecap: butt; stroke-dashoffset: 0; stroke-linejoin: miter; stroke-miterlimit: 4; is-custom-font: none; font-file-url: none; fill: rgb(248,218,57); fill-rule: evenodd; opacity: 1;" points="-37.725,-14.13 -30.255,-20.33 -29.625,-19.37 -29.145,-19.06 -28.825,-18.74 -24.065,-16.2 -23.105,-15.88 -21.995,-15.24 -20.885,-14.93 -20.725,-14.77 -7.865,-10.96 -6.435,-10.8 -5.485,-10.48 2.615,-8.89 3.575,-8.57 5.315,-8.41 8.655,-7.78 10.395,-7.62 10.875,-7.46 19.455,-6.19 20.405,-6.19 21.835,-5.87 26.595,-5.4 27.875,-5.08 29.295,-5.08 35.975,-4.29 37.875,-4.29 39.945,-3.97 40.735,-3.97 41.685,-3.81 42.955,-3.81 43.595,-3.65 44.545,-3.65 44.705,-3.49 45.185,-3.49 43.435,20.33 42.635,20.33 42.165,20.17 39.465,20.17 37.715,19.85 36.765,19.85 34.385,19.53 33.425,19.53 27.875,18.9 26.595,18.58 25.015,18.58 6.905,15.4 6.275,15.4 4.365,15.09 2.615,14.45 0.715,14.13 -1.035,13.66 -2.945,13.34 -4.685,12.71 -6.595,12.39 -11.195,10.96 -12.155,10.8 -15.645,9.53 -17.555,9.05 -20.405,7.94 -21.045,7.78 -29.305,4.13 -29.465,4.13 -30.735,3.34 -32.475,2.54 -38.035,-1.11 -38.675,-1.75 -39.465,-2.06 -43.125,-5.56 -44.235,-6.83 -45.185,-8.26 -37.725,-14.13 "/>
</g>
		<g transform="matrix(1 0 0 1 129.675 -98.4555)" id="polygon21">
<polygon style="stroke: none; stroke-width: 1; stroke-dasharray: none; stroke-linecap: butt; stroke-dashoffset: 0; stroke-linejoin: miter; stroke-miterlimit: 4; is-custom-font: none; font-file-url: none; fill: rgb(248,218,57); fill-rule: evenodd; opacity: 1;" points="-11.355,-17.39 -11.355,-17.39 -11.035,-17.39 -10.725,-17.23 -10.565,-17.23 -10.245,-17.07 -9.605,-17.07 -8.975,-16.91 -8.655,-16.76 -8.175,-16.76 -6.595,-16.28 -6.275,-16.28 -6.115,-16.12 -5.795,-15.96 -5.475,-15.64 -4.525,-15.01 -4.205,-14.69 -3.735,-14.53 -2.935,-13.74 -2.465,-13.58 -1.985,-13.1 -1.825,-12.78 -0.715,-11.99 -0.555,-11.99 -0.395,-11.67 0.085,-11.2 0.555,-11.04 2.775,-8.82 3.095,-8.66 3.735,-8.18 5.475,-6.43 6.435,-5.8 6.595,-5.48 6.755,-5.32 7.225,-5.16 7.705,-4.69 8.655,-4.05 8.975,-3.73 8.975,-3.58 9.605,-3.42 9.925,-2.94 10.405,-2.78 10.715,-2.3 11.195,-2.15 11.515,-1.83 11.995,-1.67 12.945,-1.03 13.265,-1.03 13.735,-0.72 13.895,-0.56 1.355,17.39 1.355,17.39 1.355,17.23 0.875,16.91 -0.395,15.64 -1.825,14.53 -2.465,13.89 -2.935,13.26 -3.095,13.1 -4.525,11.19 -5.165,10.56 -5.475,9.92 -5.795,9.76 -6.115,9.13 -6.595,8.49 -6.905,7.86 -7.865,6.59 -8.015,6.27 -8.175,5.8 -8.655,5.16 -9.605,3.09 -9.925,2.62 -10.405,1.67 -10.565,1.03 -11.195,-0.24 -11.355,-1.03 -11.985,-2.3 -12.465,-4.37 -12.785,-5 -13.105,-6.12 -13.105,-6.91 -13.425,-8.02 -13.425,-9.29 -13.575,-9.77 -13.575,-10.24 -13.735,-10.88 -13.735,-11.83 -13.895,-12.31 -13.895,-12.47 -13.575,-12.78 -13.425,-13.42 -13.105,-13.74 -13.105,-14.37 -12.785,-14.69 -12.625,-15.33 -12.465,-15.64 -12.145,-15.96 -12.145,-16.28 -11.985,-16.6 -11.835,-16.76 -11.675,-17.07 -11.675,-17.07 -11.515,-17.39 "/>
</g>
		<g transform="matrix(1 0 0 1 145.005 -84.5655)" id="polygon23">
<polygon style="stroke: none; stroke-width: 1; stroke-dasharray: none; stroke-linecap: butt; stroke-dashoffset: 0; stroke-linejoin: miter; stroke-miterlimit: 4; is-custom-font: none; font-file-url: none; fill: rgb(248,218,57); fill-rule: evenodd; opacity: 1;" points="-7.625,-5.55 -1.435,-14.45 -0.955,-14.13 -0.005,-13.81 0.315,-13.49 1.745,-13.02 2.065,-12.86 2.535,-12.54 2.695,-12.54 2.855,-12.38 3.175,-12.38 3.645,-12.07 3.965,-12.07 4.445,-11.75 4.765,-11.75 5.075,-11.59 5.235,-11.59 5.555,-11.43 5.875,-11.43 6.345,-11.27 6.505,-11.11 6.985,-11.11 7.145,-10.95 7.465,-10.8 7.625,-10.8 7.935,-10.64 8.575,-10.64 8.895,-10.48 9.365,-10.48 9.685,-10.32 9.845,-10.32 10.475,-10 11.435,-10 11.595,-9.84 12.865,-9.84 12.865,-9.68 13.975,-9.68 13.495,14.45 11.745,14.45 11.435,14.3 10.955,14.3 10.635,14.14 10.005,14.14 9.685,13.98 9.045,13.98 8.735,13.82 7.935,13.82 7.465,13.66 7.145,13.66 6.665,13.5 6.345,13.34 5.715,13.34 5.235,13.18 4.925,13.03 4.445,13.03 3.805,12.87 3.485,12.71 0.785,11.91 0.315,11.6 -0.795,11.28 -1.275,10.96 -2.065,10.8 -2.385,10.48 -3.015,10.33 -3.655,10.01 -4.135,9.69 -4.455,9.53 -4.765,9.53 -5.405,9.21 -6.035,8.74 -6.515,8.58 -7.155,8.1 -7.785,7.94 -8.105,7.47 -8.425,7.47 -8.895,6.99 -9.695,6.67 -10.165,6.2 -10.805,5.72 -11.435,5.4 -11.755,5.09 -12.075,4.93 -12.555,4.45 -13.345,3.97 -13.975,3.5 -7.625,-5.55 "/>
</g>
		<g transform="matrix(1 0 0 1 -89.73 90.8345)" id="polygon25">
<polygon style="stroke: none; stroke-width: 1; stroke-dasharray: none; stroke-linecap: butt; stroke-dashoffset: 0; stroke-linejoin: miter; stroke-miterlimit: 4; is-custom-font: none; font-file-url: none; fill: rgb(248,218,57); fill-rule: evenodd; opacity: 1;" points="0.16,-43.75 0.32,-42.64 0.79,-41.69 0.95,-40.57 1.74,-38.35 1.74,-37.08 2.38,-34.86 2.7,-32.32 3.18,-31.05 3.49,-28.66 3.49,-27.39 3.81,-26.28 4.13,-23.58 4.13,-22.31 4.29,-21.52 4.29,-21.04 4.44,-19.77 4.44,-18.34 4.76,-15.65 4.76,-11.67 4.92,-10.4 4.92,-4.69 4.76,-3.25 4.76,1.19 4.44,3.73 4.44,5.16 4.29,6.59 4.29,8.18 4.13,9.61 4.13,11.04 3.81,12.47 3.81,13.89 3.49,15.48 3.49,16.91 2.38,23.74 2.38,24.22 0.79,33.43 0.32,34.86 0.16,36.28 -1.43,42.48 -1.59,43.75 -3.34,43.59 -4.92,42.95 -4.13,40.1 -3.5,38.51 0.32,23.9 0.32,23.42 0.63,22.47 0.95,21.04 1.11,19.61 1.74,16.59 1.9,15.17 2.22,13.74 2.7,9.45 3.02,8.02 3.18,6.43 3.49,5 3.49,3.73 3.81,1.03 3.81,-0.56 4.13,-3.41 4.13,-4.69 4.29,-6.27 4.29,-17.07 4.13,-18.34 4.13,-21.52 3.81,-23.58 3.81,-24.85 3.49,-26.12 3.49,-27.24 3.18,-29.78 2.86,-31.05 2.38,-34.86 1.74,-37.08 1.59,-38.35 0.95,-40.57 0.79,-41.69 0.32,-42.64 0.16,-43.75 "/>
</g>
		<g transform="matrix(1 0 0 1 -135.233 182.4595)" id="polygon27">
<polygon style="stroke: none; stroke-width: 1; stroke-dasharray: none; stroke-linecap: butt; stroke-dashoffset: 0; stroke-linejoin: miter; stroke-miterlimit: 4; is-custom-font: none; font-file-url: none; fill: rgb(248,218,57); fill-rule: evenodd; opacity: 1;" points="42.163,-48.035 43.913,-47.875 43.123,-45.495 43.123,-45.015 29.463,-7.385 26.923,-3.095 26.923,-2.615 15.961,15.325 14.532,17.075 13.261,18.985 1.827,31.685 -1.192,34.385 -1.668,34.695 -2.621,35.655 -5.956,38.195 -7.544,39.145 -10.561,41.365 -17.073,44.865 -23.743,47.085 -23.902,47.245 -29.143,48.355 -34.702,48.675 -38.037,48.355 -39.943,48.355 -43.596,47.565 -43.755,47.405 -43.913,47.405 -39.466,32.165 -37.084,32.955 -34.861,33.275 -33.907,33.275 -31.843,33.585 -30.573,33.425 -29.461,33.425 -27.079,33.115 -27.079,33.115 -22.155,32.005 -19.456,30.885 -18.185,30.575 -16.914,29.775 -14.214,28.505 -7.068,24.065 1.509,16.915 7.067,11.195 7.067,11.035 8.338,9.455 9.926,7.865 20.403,-6.425 20.723,-6.585 31.683,-26.275 38.833,-43.435 39.623,-46.135 39.783,-46.445 40.583,-48.675 42.163,-48.035 "/>
</g>
		<g transform="matrix(1 0 0 1 -196.6165 164.8345)" id="polygon29">
<polygon style="stroke: none; stroke-width: 1; stroke-dasharray: none; stroke-linecap: butt; stroke-dashoffset: 0; stroke-linejoin: miter; stroke-miterlimit: 4; is-custom-font: none; font-file-url: none; fill: rgb(248,218,57); fill-rule: evenodd; opacity: 1;" points="19.8525,57.41 17.4705,65.03 14.4525,64.23 9.3705,62.01 4.6055,59.15 -0.9525,54.39 -4.7645,50.1 -5.8755,48.51 -7.1465,47.09 -13.8175,34.7 -16.8345,26.76 -17.3115,24.69 -18.1055,22.63 -18.5815,20.25 -18.8995,19.45 -19.0585,18.18 -19.6935,15.96 -21.5995,4.37 -21.5995,1.98 -22.0755,-0.4 -22.3935,-18.18 -20.4875,-39.78 -19.8515,-42.48 -19.6935,-45.34 -14.9285,-65.03 -14.9285,-65.03 8.0995,-58.2 5.3995,-48.2 5.0825,-47.4 1.4295,-28.66 0.0005,-14.69 0.3175,8.5 0.6355,10.4 0.7945,12.47 1.2715,15.17 1.2715,16.12 2.3825,21.36 3.0175,22.95 4.7655,29.3 5.3995,30.57 5.8765,32.16 6.9885,34.22 7.1475,34.7 8.4175,37.24 9.0525,38.19 9.6885,39.46 10.6415,40.42 11.2755,41.37 12.0705,42.32 12.7055,43.27 13.5005,44.07 14.4525,44.86 15.0875,45.65 16.0405,46.45 17.7875,47.4 18.1055,47.88 18.5815,48.2 19.5345,48.51 21.2815,49.47 22.3935,49.94 19.8525,57.41 "/>
</g>
		<g transform="matrix(1 0 0 1 -163.9775 57.7245)" id="polygon31">
<polygon style="stroke: none; stroke-width: 1; stroke-dasharray: none; stroke-linecap: butt; stroke-dashoffset: 0; stroke-linejoin: miter; stroke-miterlimit: 4; is-custom-font: none; font-file-url: none; fill: rgb(248,218,57); fill-rule: evenodd; opacity: 1;" points="-36.1335,45.42 -47.5675,42.08 -44.2325,31.12 -44.0745,31.12 -38.9915,17.78 -38.1985,16.36 -37.8795,15.4 -35.4975,10.32 -34.7035,9.05 -33.1155,5.56 -31.6865,3.33 -30.5745,0.95 -23.5865,-10.01 -22.3155,-11.59 -21.9975,-11.91 -19.1385,-16.04 -6.4335,-30.01 -6.1165,-30.17 -3.0985,-33.03 -1.3515,-34.3 -0.0805,-35.57 0.3955,-35.57 1.9835,-37 6.9065,-40.34 14.3715,-44.31 14.3715,-44.46 19.6125,-46.53 21.3595,-47.01 22.6305,-47.48 23.2655,-47.48 31.2055,-48.91 33.7475,-48.91 40.1005,-48.12 43.7535,-45.89 46.4475,-43.83 47.4075,-42.72 47.5675,-42.72 45.9775,-42.4 41.5295,-40.66 40.2595,-39.86 39.7815,-39.7 38.9885,-39.54 37.8765,-39.07 36.4475,-38.75 35.4935,-38.11 34.2235,-37.64 33.7475,-37.32 32.9535,-37.32 31.8415,-36.53 30.5715,-36.05 28.1885,-34.78 27.8705,-34.46 25.9655,-33.03 24.6955,-32.4 23.5825,-31.44 22.4705,-30.65 22.3125,-30.49 21.0415,-29.7 17.5485,-26.52 17.5485,-26.36 12.6245,-21.6 6.7485,-14.77 5.7955,-13.18 4.3655,-11.75 4.0485,-10.96 3.2545,-10.16 -0.0805,-5.24 -0.0805,-5.24 -1.3515,-3.5 -3.4165,0.32 -3.7335,0.63 -10.0865,11.91 -10.4045,13.02 -21.3635,38.9 -21.3635,39.06 -22.3155,41.45 -24.5395,48.91 -36.1335,45.42 "/>
</g>
		<g transform="matrix(1 0 0 1 214.165 90.8345)" id="polygon33">
<polygon style="stroke: none; stroke-width: 1; stroke-dasharray: none; stroke-linecap: butt; stroke-dashoffset: 0; stroke-linejoin: miter; stroke-miterlimit: 4; is-custom-font: none; font-file-url: none; fill: rgb(248,218,57); fill-rule: evenodd; opacity: 1;" points="0.085,-43.75 1.665,-38.35 1.825,-37.08 2.465,-34.86 2.785,-32.32 3.095,-31.05 3.575,-27.39 3.895,-26.28 3.895,-24.85 4.055,-23.58 4.055,-22.31 4.205,-21.52 4.365,-21.04 4.525,-19.77 4.525,-18.34 4.845,-15.65 4.845,1.19 4.525,3.73 4.525,5.16 4.055,9.61 4.055,11.04 3.895,12.47 3.895,13.89 3.095,18.34 3.095,19.93 2.465,22.79 2.465,23.74 2.305,24.22 2.145,25.96 1.515,28.82 1.355,30.41 -0.555,39.46 -1.035,40.89 -1.665,43.75 -3.255,43.59 -4.845,42.95 -4.525,41.37 -3.095,37.08 -2.775,35.65 -2.295,34.22 -1.985,32.63 -1.505,31.2 -1.185,29.78 -0.235,26.92 -0.075,25.33 0.405,23.9 0.405,23.42 3.095,8.02 3.095,6.43 3.415,5 3.895,1.03 3.895,-1.99 4.055,-3.41 4.055,-4.69 4.205,-6.27 4.205,-8.81 4.365,-10.4 4.365,-14.37 4.205,-15.65 4.205,-17.07 4.055,-18.34 4.055,-21.52 3.895,-22.31 3.895,-24.85 3.575,-26.12 2.785,-32.32 2.465,-33.43 2.145,-35.81 0.085,-43.75 "/>
</g>
		<g transform="matrix(1 0 0 1 168.665 182.4595)" id="polygon35">
<polygon style="stroke: none; stroke-width: 1; stroke-dasharray: none; stroke-linecap: butt; stroke-dashoffset: 0; stroke-linejoin: miter; stroke-miterlimit: 4; is-custom-font: none; font-file-url: none; fill: rgb(248,218,57); fill-rule: evenodd; opacity: 1;" points="42.245,-48.035 43.835,-47.875 43.205,-45.495 43.205,-45.015 36.525,-24.215 36.205,-23.735 35.575,-21.675 28.275,-5.155 26.995,-3.095 26.845,-2.615 17.315,13.425 6.355,27.235 -2.695,35.655 -8.895,40.255 -17.155,44.865 -23.825,47.085 -23.975,47.245 -29.225,48.355 -34.625,48.675 -38.115,48.355 -40.025,48.355 -43.515,47.565 -43.675,47.405 -43.835,47.405 -39.385,32.165 -37.005,32.955 -34.935,33.275 -33.825,33.275 -31.765,33.585 -30.655,33.425 -29.385,33.425 -27.155,33.115 -26.995,33.115 -25.885,32.955 -20.805,31.525 -19.535,30.885 -18.265,30.575 -12.705,27.715 -11.435,26.765 -9.845,25.965 -8.895,25.335 -8.575,25.015 -4.285,21.835 -3.015,20.565 -1.425,19.455 1.425,16.915 2.865,15.325 4.285,14.055 5.565,12.625 7.145,11.195 7.145,11.035 15.405,1.035 20.485,-6.425 20.645,-6.585 31.445,-25.805 40.655,-48.675 42.245,-48.035 "/>
</g>
		<g transform="matrix(1 0 0 1 107.525 164.8345)" id="polygon37">
<polygon style="stroke: none; stroke-width: 1; stroke-dasharray: none; stroke-linecap: butt; stroke-dashoffset: 0; stroke-linejoin: miter; stroke-miterlimit: 4; is-custom-font: none; font-file-url: none; fill: rgb(248,218,57); fill-rule: evenodd; opacity: 1;" points="19.685,57.41 17.305,65.03 14.135,64.23 9.045,62.01 3.015,58.04 0.155,55.66 -2.545,52.96 -3.655,51.53 -5.085,50.1 -6.035,48.51 -7.315,47.09 -9.535,43.75 -9.695,43.12 -13.185,36.45 -17.155,26.76 -17.635,24.53 -18.265,22.47 -18.745,20.25 -19.065,19.45 -22.075,1.83 -21.925,-31.52 -21.445,-34.38 -21.285,-37.08 -18.425,-52.96 -18.115,-53.59 -15.415,-65.03 -15.415,-65.03 7.625,-58.2 4.925,-48.2 4.925,-47.56 0.945,-26.6 0.945,-26.44 0.475,-21.68 -0.005,-19.45 -0.005,8.5 0.785,14.21 1.105,15.17 1.105,16.12 1.585,17.71 1.745,19.61 2.215,21.2 2.535,22.95 3.175,24.53 3.485,26.28 4.125,27.71 5.075,30.57 6.665,34.22 6.985,34.7 7.465,35.97 8.885,38.19 9.525,39.46 10.315,40.42 10.955,41.37 12.545,43.27 14.925,45.65 15.875,46.45 17.625,47.4 17.785,47.88 22.075,49.94 19.685,57.41 "/>
</g>
		<g transform="matrix(1 0 0 1 139.84 57.7245)" id="polygon39">
<polygon style="stroke: none; stroke-width: 1; stroke-dasharray: none; stroke-linecap: butt; stroke-dashoffset: 0; stroke-linejoin: miter; stroke-miterlimit: 4; is-custom-font: none; font-file-url: none; fill: rgb(248,218,57); fill-rule: evenodd; opacity: 1;" points="-35.97,45.42 -47.73,42.08 -44.23,31.12 -44.23,31.12 -38.35,16.36 -37.72,15.4 -36.77,12.86 -29.14,-1.43 -26.76,-4.92 -26.44,-5.88 -22.31,-11.59 -22,-11.91 -11.36,-25.09 -6.27,-30.01 -6.11,-30.01 -2.94,-33.03 -1.19,-34.3 0.08,-35.57 0.55,-35.57 2.15,-37 3.89,-38.11 5.48,-39.38 7.07,-40.34 7.23,-40.5 14.37,-44.31 14.53,-44.46 19.77,-46.53 21.52,-47.01 22.79,-47.48 23.27,-47.48 25.17,-47.8 26.92,-48.28 28.67,-48.44 30.41,-48.75 31.37,-48.75 32.16,-48.91 38.99,-48.28 40.26,-47.96 45.18,-44.94 47.73,-42.56 46.14,-42.24 41.69,-40.66 39.94,-39.7 37.88,-38.91 36.61,-38.59 34.23,-37.64 33.75,-37.32 33.11,-37.16 31.84,-36.37 29.46,-35.26 22.47,-30.65 22.47,-30.49 21.2,-29.7 18.98,-27.63 17.55,-26.52 17.39,-26.36 16.6,-25.41 15.17,-24.14 12.94,-21.76 12.79,-21.44 8.02,-16.2 7.07,-14.77 5.64,-13.18 4.69,-11.75 3.89,-10.96 3.41,-10.01 2.15,-8.58 1.19,-6.83 0.08,-5.24 -0.08,-5.24 -3.41,0.32 -3.73,0.63 -6.75,5.87 -7.07,6.67 -7.86,7.94 -13.58,19.37 -24.69,48.91 -35.97,45.42 "/>
</g>
		<g transform="matrix(1 0 0 1 46.93 73.5245)" id="polygon41">
<polygon style="stroke: none; stroke-width: 1; stroke-dasharray: none; stroke-linecap: butt; stroke-dashoffset: 0; stroke-linejoin: miter; stroke-miterlimit: 4; is-custom-font: none; font-file-url: none; fill: rgb(248,218,57); fill-rule: evenodd; opacity: 1;" points="38.67,-57.25 38.67,-56.61 39.31,-52.17 39.31,-51.85 38.2,-47.4 38.2,-47.24 36.77,-43.43 36.77,-42.96 35.02,-38.99 35.02,-38.83 31.68,-31.68 31.53,-30.89 27.72,-23.42 27.4,-23.1 23.27,-15.32 22.95,-14.53 21.2,-11.51 21.2,-11.35 19.3,-8.34 18.98,-7.54 17.55,-5 16.76,-3.89 14.69,-0.08 9.77,7.23 9.45,7.86 2.94,17.71 2.62,18.34 -12.94,39.78 -13.1,39.94 -26.76,57.25 -26.92,57.25 -39.31,47.88 -27.55,29.78 -27.4,29.62 -6.75,-2.62 -6.43,-3.26 -4.68,-5.8 -3.89,-6.75 0.88,-14.21 1.67,-15.17 5.64,-21.04 5.8,-21.2 13.42,-31.84 13.58,-32 15.65,-34.54 17.23,-37.08 18.82,-38.67 18.98,-39.3 20.73,-41.68 21.52,-42.16 22.48,-43.75 24.22,-45.5 24.22,-45.66 30.1,-52.17 31.53,-53.28 33.43,-55.18 34.07,-55.5 37.56,-56.77 38.52,-57.25 "/>
</g>
		<g transform="matrix(1 0 0 1 58.925 66.3795)" id="polyline43">
<polyline style="stroke: rgb(248,218,57); stroke-width: 0.1212; stroke-dasharray: none; stroke-linecap: square; stroke-dashoffset: 0; stroke-linejoin: miter; stroke-miterlimit: 10; is-custom-font: none; font-file-url: none; fill: none; fill-rule: nonzero; opacity: 1;" points="26.675,-50.105 26.675,-49.465 27.315,-45.025 27.315,-44.705 26.205,-40.255 26.205,-40.095 24.775,-36.285 24.775,-35.815 23.025,-31.845 23.025,-31.685 19.685,-24.535 19.535,-23.745 15.725,-16.275 15.405,-15.955 11.275,-8.175 10.955,-7.385 9.205,-4.365 9.205,-4.205 7.305,-1.195 6.985,-0.395 5.555,2.145 4.765,3.255 2.695,7.065 -2.225,14.375 -2.545,15.005 -9.055,24.855 -9.375,25.485 -24.935,46.925 -25.095,47.085 -27.315,50.105 "/>
</g>
		<g transform="matrix(1 0 0 1 25.81 123.6295)" id="polyline45">
<polyline style="stroke: rgb(248,218,57); stroke-width: 0.1212; stroke-dasharray: none; stroke-linecap: square; stroke-dashoffset: 0; stroke-linejoin: miter; stroke-miterlimit: 10; is-custom-font: none; font-file-url: none; fill: none; fill-rule: nonzero; opacity: 1;" points="5.8,-7.145 -5.64,7.145 -5.8,7.145 "/>
</g>
		<g transform="matrix(1 0 0 1 44.945 69.4745)" id="polyline47">
<polyline style="stroke: rgb(248,218,57); stroke-width: 0.1212; stroke-dasharray: none; stroke-linecap: square; stroke-dashoffset: 0; stroke-linejoin: miter; stroke-miterlimit: 10; is-custom-font: none; font-file-url: none; fill: none; fill-rule: nonzero; opacity: 1;" points="-37.325,51.93 -25.565,33.83 -25.415,33.67 -4.765,1.43 -4.445,0.79 -2.695,-1.75 -1.905,-2.7 2.865,-10.16 3.655,-11.12 7.625,-16.99 7.785,-17.15 15.405,-27.79 15.565,-27.95 17.635,-30.49 19.215,-33.03 20.805,-34.62 20.965,-35.25 22.715,-37.63 23.505,-38.11 24.465,-39.7 26.205,-41.45 26.205,-41.61 32.085,-48.12 33.515,-49.23 35.415,-51.13 36.055,-51.45 37.325,-51.93 "/>
</g>
		<g transform="matrix(1 0 0 1 83.935 16.9095)" id="polyline49">
<polyline style="stroke: rgb(248,218,57); stroke-width: 0.1212; stroke-dasharray: none; stroke-linecap: square; stroke-dashoffset: 0; stroke-linejoin: miter; stroke-miterlimit: 10; is-custom-font: none; font-file-url: none; fill: none; fill-rule: nonzero; opacity: 1;" points="-1.665,0.635 0.555,-0.155 1.515,-0.635 1.665,-0.635 "/>
</g>
		<g transform="matrix(1 0 0 1 1.825 140.9345)" id="polygon51">
<polygon style="stroke: none; stroke-width: 1; stroke-dasharray: none; stroke-linecap: butt; stroke-dashoffset: 0; stroke-linejoin: miter; stroke-miterlimit: 4; is-custom-font: none; font-file-url: none; fill: rgb(248,218,57); fill-rule: evenodd; opacity: 1;" points="11.995,-14.93 18.185,-10.16 -3.575,12.7 -3.885,12.86 -10.555,17.47 -13.735,18.9 -17.075,19.53 -17.705,19.53 -17.705,14.61 -18.185,9.85 -17.075,9.53 -16.115,8.58 -14.215,6.99 -11.835,4.45 -11.515,4.29 -3.885,-5.56 -2.775,-6.67 5.795,-19.53 11.995,-14.93 "/>
</g>
		<g transform="matrix(1 0 0 1 2.065 145.6195)" id="polyline53">
<polyline style="stroke: rgb(248,218,57); stroke-width: 0.1212; stroke-dasharray: none; stroke-linecap: square; stroke-dashoffset: 0; stroke-linejoin: miter; stroke-miterlimit: 10; is-custom-font: none; font-file-url: none; fill: none; fill-rule: nonzero; opacity: 1;" points="17.945,-14.845 -3.815,8.015 -4.125,8.175 -10.795,12.785 -13.975,14.215 -17.315,14.845 -17.945,14.845 "/>
</g>
		<g transform="matrix(1 0 0 1 -4.37 136.0945)" id="polyline55">
<polyline style="stroke: rgb(248,218,57); stroke-width: 0.1212; stroke-dasharray: none; stroke-linecap: square; stroke-dashoffset: 0; stroke-linejoin: miter; stroke-miterlimit: 10; is-custom-font: none; font-file-url: none; fill: none; fill-rule: nonzero; opacity: 1;" points="-11.99,14.69 -10.88,14.37 -9.92,13.42 -8.02,11.83 -5.64,9.29 -5.32,9.13 2.31,-0.72 3.42,-1.83 11.99,-14.69 "/>
</g>
		<g transform="matrix(1 0 0 1 -68.8465 153.8745)" id="polygon57">
<polygon style="stroke: none; stroke-width: 1; stroke-dasharray: none; stroke-linecap: butt; stroke-dashoffset: 0; stroke-linejoin: miter; stroke-miterlimit: 4; is-custom-font: none; font-file-url: none; fill: rgb(248,218,57); fill-rule: evenodd; opacity: 1;" points="52.9665,1.67 52.9665,6.59 51.0565,6.59 49.7865,6.43 48.5165,6.12 47.2465,6.12 38.5165,5.01 37.8765,4.85 26.2865,3.42 25.4865,3.1 24.2165,3.1 12.3065,1.35 11.1965,1.04 -0.2435,-0.39 -0.5535,-0.55 -18.1835,-2.62 -20.0935,-3.09 -22.3135,-3.41 -24.2235,-3.41 -26.4435,-3.73 -26.7635,-3.73 -28.3535,-4.05 -38.9935,-5.16 -40.4235,-5.47 -42.0035,-5.47 -43.4335,-5.63 -44.7035,-5.95 -46.9335,-5.95 -48.0435,-6.11 -48.9935,-6.11 -51.3775,-6.59 -52.9665,-6.59 -50.7435,-6.59 -48.0435,-6.11 -46.9335,-6.11 -45.9835,-5.95 41.6865,-2.62 43.4365,-2.77 46.2965,-2.77 47.7265,-2.93 48.8365,-2.93 50.1065,-3.09 52.4865,-3.09 52.9665,1.67 "/>
</g>
		<g transform="matrix(1 0 0 1 -64.715 154.1945)" id="polyline59">
<polyline style="stroke: rgb(248,218,57); stroke-width: 0.1212; stroke-dasharray: none; stroke-linecap: square; stroke-dashoffset: 0; stroke-linejoin: miter; stroke-miterlimit: 10; is-custom-font: none; font-file-url: none; fill: none; fill-rule: nonzero; opacity: 1;" points="48.835,6.27 46.925,6.27 45.655,6.11 44.385,5.8 43.115,5.8 34.385,4.69 33.745,4.53 22.155,3.1 21.355,2.78 20.085,2.78 8.175,1.03 7.065,0.72 -4.375,-0.71 -4.685,-0.87 -22.315,-2.94 -24.225,-3.41 -26.445,-3.73 -28.355,-3.73 -30.575,-4.05 -30.895,-4.05 -32.485,-4.37 -43.125,-5.48 -44.555,-5.79 -46.135,-5.79 -47.565,-5.95 -48.835,-6.27 "/>
</g>
		<g transform="matrix(1 0 0 1 -84.0915 149.1945)" id="polyline61">
<polyline style="stroke: rgb(248,218,57); stroke-width: 0.1212; stroke-dasharray: none; stroke-linecap: square; stroke-dashoffset: 0; stroke-linejoin: miter; stroke-miterlimit: 10; is-custom-font: none; font-file-url: none; fill: none; fill-rule: nonzero; opacity: 1;" points="-29.4585,-1.27 -31.6885,-1.27 -32.7985,-1.43 -33.7485,-1.43 -36.1325,-1.91 -37.7215,-1.91 -35.4985,-1.91 -32.7985,-1.43 -31.6885,-1.43 -30.7385,-1.27 37.7215,1.91 "/>
</g>
		<g transform="matrix(1 0 0 1 -31.365 151.0195)" id="polyline63">
<polyline style="stroke: rgb(248,218,57); stroke-width: 0.1212; stroke-dasharray: none; stroke-linecap: square; stroke-dashoffset: 0; stroke-linejoin: miter; stroke-miterlimit: 10; is-custom-font: none; font-file-url: none; fill: none; fill-rule: nonzero; opacity: 1;" points="-15.005,0.085 4.205,0.235 5.955,0.085 8.815,0.085 10.245,-0.075 11.355,-0.075 12.625,-0.235 15.005,-0.235 "/>
</g>
		<g transform="matrix(1 0 0 1 -80.6795 74.3995)" id="polygon65">
<polygon style="stroke: none; stroke-width: 1; stroke-dasharray: none; stroke-linecap: butt; stroke-dashoffset: 0; stroke-linejoin: miter; stroke-miterlimit: 4; is-custom-font: none; font-file-url: none; fill: rgb(248,218,57); fill-rule: evenodd; opacity: 1;" points="-47.1685,60.505 -47.3275,60.185 -47.4865,60.025 -48.1215,56.845 -48.4395,55.895 -48.2805,55.575 -47.9625,54.305 -47.8045,52.885 -47.8045,52.565 -47.3275,51.295 -46.8505,49.545 -46.8505,49.385 -44.6275,43.985 -44.4685,43.195 -43.6745,41.925 -41.7685,37.475 -41.6095,37.475 -40.3395,35.095 -40.1805,34.615 -33.8305,23.505 -33.3505,22.865 -31.7605,20.005 -16.2005,-1.595 -15.2505,-2.545 -9.8505,-9.685 -9.2105,-10.165 -3.0205,-17.635 -3.0205,-17.635 16.8395,-38.745 17.1495,-38.905 27.3195,-48.435 31.2895,-51.455 33.0295,-53.045 39.7095,-57.645 43.8295,-59.715 47.8095,-60.505 48.1195,-60.505 48.1195,-58.125 48.4395,-55.745 47.3295,-55.585 46.8495,-55.425 46.0595,-54.785 45.1095,-54.315 41.7695,-51.615 36.8495,-46.215 36.6895,-45.895 32.2395,-40.495 31.1295,-38.745 30.8095,-38.435 25.8895,-31.445 25.7295,-31.125 20.8095,-24.135 20.4895,-23.505 15.5695,-16.045 15.2495,-15.725 10.1695,-7.785 10.1695,-7.625 4.9195,0.155 4.6095,0.785 -17.9505,33.345 -18.2605,33.985 -19.6905,35.565 -21.4405,37.955 -22.3905,38.905 -24.1405,41.445 -30.1705,48.275 -30.4905,48.745 -31.7605,49.865 -33.1905,51.605 -40.1805,57.805 -42.4035,59.385 -42.7215,59.545 -43.6745,59.865 -46.0565,60.185 -46.6915,60.185 -47.1685,60.345 -47.1685,60.505 "/>
</g>
		<g transform="matrix(1 0 0 1 -104.1045 93.2945)" id="polyline67">
<polyline style="stroke: rgb(248,218,57); stroke-width: 0.1212; stroke-dasharray: none; stroke-linecap: square; stroke-dashoffset: 0; stroke-linejoin: miter; stroke-miterlimit: 10; is-custom-font: none; font-file-url: none; fill: none; fill-rule: nonzero; opacity: 1;" points="-23.7435,41.61 -23.9025,41.29 -24.0615,41.13 -24.6965,37.95 -25.0145,37 -24.8555,36.68 -24.5375,35.41 -24.3795,33.99 -24.3795,33.67 -23.9025,32.4 -23.4255,30.65 -23.4255,30.49 -21.2025,25.09 -21.0435,24.3 -20.2495,23.03 -18.3435,18.58 -18.1845,18.58 -16.9145,16.2 -16.7555,15.72 -10.4055,4.61 -9.9255,3.97 -8.3355,1.11 7.2245,-20.49 8.1745,-21.44 13.5745,-28.58 14.2145,-29.06 20.4045,-36.53 20.4045,-36.53 25.0145,-41.61 "/>
</g>
		<g transform="matrix(1 0 0 1 -55.825 32.7895)" id="polyline69">
<polyline style="stroke: rgb(248,218,57); stroke-width: 0.1212; stroke-dasharray: none; stroke-linecap: square; stroke-dashoffset: 0; stroke-linejoin: miter; stroke-miterlimit: 10; is-custom-font: none; font-file-url: none; fill: none; fill-rule: nonzero; opacity: 1;" points="-23.265,18.895 -8.015,2.865 -7.705,2.705 2.465,-6.825 6.435,-9.845 8.175,-11.435 14.855,-16.035 18.975,-18.105 22.955,-18.895 23.265,-18.895 "/>
</g>
		<g transform="matrix(1 0 0 1 -66.625 64.7895)" id="polyline71">
<polyline style="stroke: rgb(248,218,57); stroke-width: 0.1212; stroke-dasharray: none; stroke-linecap: square; stroke-dashoffset: 0; stroke-linejoin: miter; stroke-miterlimit: 10; is-custom-font: none; font-file-url: none; fill: none; fill-rule: nonzero; opacity: 1;" points="34.385,-46.135 33.275,-45.975 32.795,-45.815 32.005,-45.175 31.055,-44.705 27.715,-42.005 22.795,-36.605 22.635,-36.285 18.185,-30.885 17.075,-29.135 16.755,-28.825 11.835,-21.835 11.675,-21.515 6.755,-14.525 6.435,-13.895 1.515,-6.435 1.195,-6.115 -3.885,1.825 -3.885,1.985 -9.135,9.765 -9.445,10.395 -32.005,42.955 -32.315,43.595 -33.745,45.175 -34.385,46.135 "/>
</g>
		<g transform="matrix(1 0 0 1 -114.429 122.9145)" id="polyline73">
<polyline style="stroke: rgb(248,218,57); stroke-width: 0.1212; stroke-dasharray: none; stroke-linecap: square; stroke-dashoffset: 0; stroke-linejoin: miter; stroke-miterlimit: 10; is-custom-font: none; font-file-url: none; fill: none; fill-rule: nonzero; opacity: 1;" points="13.419,-11.99 12.309,-10.56 11.359,-9.61 9.609,-7.07 3.579,-0.24 3.259,0.23 1.989,1.35 0.559,3.09 -6.431,9.29 -8.654,10.87 -8.972,11.03 -9.925,11.35 -12.307,11.67 -12.942,11.67 -13.419,11.83 -13.419,11.99 "/>
</g>
		<g transform="matrix(1 0 0 1 -7.705 16.2745)" id="polygon75">
<polygon style="stroke: none; stroke-width: 1; stroke-dasharray: none; stroke-linecap: butt; stroke-dashoffset: 0; stroke-linejoin: miter; stroke-miterlimit: 4; is-custom-font: none; font-file-url: none; fill: rgb(248,218,57); fill-rule: evenodd; opacity: 1;" points="-24.855,0 -24.855,-2.38 -23.895,-2.22 -22.785,-2.22 -22.155,-2.06 -21.205,-2.06 -20.245,-1.9 -19.455,-1.9 -18.495,-1.75 -16.275,-1.75 -15.325,-1.59 -14.365,-1.59 -13.415,-1.43 -12.305,-1.43 -11.195,-1.27 -9.285,-1.27 -7.065,-0.95 -2.935,-0.95 -1.825,-0.79 -0.875,-0.79 0.085,-0.63 3.255,-0.63 4.215,-0.47 5.165,-0.47 5.955,-0.32 5.955,-0.32 8.025,-0.32 8.975,-0.16 15.015,-0.16 15.325,0 24.855,0 15.325,0 15.015,0.16 8.975,0.16 8.025,0.32 5.955,0.32 5.955,0.32 5.165,0.48 2.145,0.48 1.195,0.64 0.085,0.64 -0.875,0.79 -5.005,0.79 -5.955,0.95 -7.065,0.95 -8.175,1.11 -10.245,1.11 -12.305,1.43 -13.415,1.43 -14.365,1.59 -17.385,1.59 -18.495,1.75 -19.455,1.75 -21.205,2.07 -22.155,2.07 -22.785,2.23 -23.895,2.23 -24.855,2.38 -24.855,0 "/>
</g>
		<g transform="matrix(1 0 0 1 -8.655 15.0845)" id="polyline77">
<polyline style="stroke: rgb(248,218,57); stroke-width: 0.1212; stroke-dasharray: none; stroke-linecap: square; stroke-dashoffset: 0; stroke-linejoin: miter; stroke-miterlimit: 10; is-custom-font: none; font-file-url: none; fill: none; fill-rule: nonzero; opacity: 1;" points="-23.905,-1.19 -22.945,-1.03 -21.835,-1.03 -21.205,-0.87 -20.255,-0.87 -19.295,-0.71 -18.505,-0.71 -17.545,-0.56 -15.325,-0.56 -14.375,-0.4 -13.415,-0.4 -12.465,-0.24 -11.355,-0.24 -10.245,-0.08 -8.335,-0.08 -6.115,0.24 -1.985,0.24 -0.875,0.4 0.075,0.4 1.035,0.56 4.205,0.56 5.165,0.72 6.115,0.72 6.905,0.87 6.905,0.87 8.975,0.87 9.925,1.03 15.965,1.03 16.275,1.19 23.905,1.19 "/>
</g>
		<g transform="matrix(1 0 0 1 -0.4 16.8295)" id="polyline79">
<polyline style="stroke: rgb(248,218,57); stroke-width: 0.1212; stroke-dasharray: none; stroke-linecap: square; stroke-dashoffset: 0; stroke-linejoin: miter; stroke-miterlimit: 10; is-custom-font: none; font-file-url: none; fill: none; fill-rule: nonzero; opacity: 1;" points="15.65,-0.555 17.55,-0.555 8.02,-0.555 7.71,-0.395 1.67,-0.395 0.72,-0.235 -1.35,-0.235 -1.35,-0.235 -2.14,-0.075 -5.16,-0.075 -6.11,0.085 -7.22,0.085 -8.18,0.235 -12.31,0.235 -13.26,0.395 -14.37,0.395 -15.48,0.555 -17.55,0.555 "/>
</g>
		<g transform="matrix(1 0 0 1 -25.255 18.0195)" id="polyline81">
<polyline style="stroke: rgb(248,218,57); stroke-width: 0.1212; stroke-dasharray: none; stroke-linecap: square; stroke-dashoffset: 0; stroke-linejoin: miter; stroke-miterlimit: 10; is-custom-font: none; font-file-url: none; fill: none; fill-rule: nonzero; opacity: 1;" points="7.305,-0.635 5.245,-0.315 4.135,-0.315 3.185,-0.155 0.165,-0.155 -0.945,0.005 -1.905,0.005 -3.655,0.325 -4.605,0.325 -5.235,0.485 -6.345,0.485 -7.305,0.635 "/>
</g>
		<g transform="matrix(1 0 0 1 -27.475 85.9895)" id="polygon83">
<polygon style="stroke: none; stroke-width: 1; stroke-dasharray: none; stroke-linecap: butt; stroke-dashoffset: 0; stroke-linejoin: miter; stroke-miterlimit: 4; is-custom-font: none; font-file-url: none; fill: rgb(248,218,57); fill-rule: evenodd; opacity: 1;" points="-0.955,-46.845 2.385,-45.415 3.815,-44.145 6.355,-39.855 6.985,-38.425 7.945,-35.565 9.685,-25.405 9.685,-12.225 3.495,32.235 3.495,33.505 3.015,37.955 3.015,46.845 3.175,46.845 2.065,35.095 1.425,32.235 1.115,29.375 -2.225,16.355 -2.385,14.775 -6.195,0.315 -6.355,-1.265 -6.825,-2.545 -8.895,-14.135 -9.055,-17.305 -9.375,-18.735 -9.375,-20.005 -9.685,-23.185 -9.685,-27.475 -8.895,-33.505 -8.895,-34.935 -7.145,-40.655 -5.555,-43.665 -4.285,-45.255 -0.955,-46.845 "/>
</g>
		<g transform="matrix(1 0 0 1 -23.11 85.9895)" id="polyline85">
<polyline style="stroke: rgb(248,218,57); stroke-width: 0.1212; stroke-dasharray: none; stroke-linecap: square; stroke-dashoffset: 0; stroke-linejoin: miter; stroke-miterlimit: 10; is-custom-font: none; font-file-url: none; fill: none; fill-rule: nonzero; opacity: 1;" points="-5.32,-46.845 -1.98,-45.415 -0.55,-44.145 1.99,-39.855 2.62,-38.425 3.58,-35.565 5.32,-25.405 5.32,-12.225 -0.87,32.235 -0.87,33.505 -1.35,37.955 -1.35,46.845 -1.19,46.845 -2.3,35.095 -2.94,32.235 -3.25,29.375 -4.36,24.935 "/>
</g>
		<g transform="matrix(1 0 0 1 -32.315 75.0345)" id="polyline87">
<polyline style="stroke: rgb(248,218,57); stroke-width: 0.1212; stroke-dasharray: none; stroke-linecap: square; stroke-dashoffset: 0; stroke-linejoin: miter; stroke-miterlimit: 10; is-custom-font: none; font-file-url: none; fill: none; fill-rule: nonzero; opacity: 1;" points="4.845,35.89 2.615,27.31 2.455,25.73 -1.355,11.27 -1.515,9.69 -1.985,8.41 -4.055,-3.18 -4.215,-6.35 -4.535,-7.78 -4.535,-9.05 -4.845,-12.23 -4.845,-16.52 -4.055,-22.55 -4.055,-23.98 -2.305,-29.7 -0.715,-32.71 0.555,-34.3 3.885,-35.89 "/>
</g>
		<g transform="matrix(1 0 0 1 126.815 45.4145)" id="polygon89">
<polygon style="stroke: none; stroke-width: 1; stroke-dasharray: none; stroke-linecap: butt; stroke-dashoffset: 0; stroke-linejoin: miter; stroke-miterlimit: 4; is-custom-font: none; font-file-url: none; fill: rgb(248,218,57); fill-rule: evenodd; opacity: 1;" points="-11.985,-68.68 -8.495,-67.25 -6.745,-65.5 -5.155,-63.44 -0.235,-53.28 3.095,-42.64 3.415,-40.73 4.215,-38.51 5.325,-32 5.955,-29.93 15.485,62.01 16.915,68.68 -14.365,-32.47 -15.165,-36.76 -15.325,-38.83 -16.115,-43.11 -16.915,-54.39 -15.805,-63.44 -15.005,-65.82 -11.985,-68.68 "/>
</g>
		<g transform="matrix(1 0 0 1 129.28 45.4145)" id="polyline91">
<polyline style="stroke: rgb(248,218,57); stroke-width: 0.1212; stroke-dasharray: none; stroke-linecap: square; stroke-dashoffset: 0; stroke-linejoin: miter; stroke-miterlimit: 10; is-custom-font: none; font-file-url: none; fill: none; fill-rule: nonzero; opacity: 1;" points="-14.45,-68.68 -10.96,-67.25 -9.21,-65.5 -7.62,-63.44 -2.7,-53.28 0.63,-42.64 0.95,-40.73 1.75,-38.51 2.86,-32 3.49,-29.93 13.02,62.01 14.45,68.68 5.56,36.76 4.76,34.86 "/>
</g>
		<g transform="matrix(1 0 0 1 121.97 28.5045)" id="polyline93">
<polyline style="stroke: rgb(248,218,57); stroke-width: 0.1212; stroke-dasharray: none; stroke-linecap: square; stroke-dashoffset: 0; stroke-linejoin: miter; stroke-miterlimit: 10; is-custom-font: none; font-file-url: none; fill: none; fill-rule: nonzero; opacity: 1;" points="12.07,51.77 -2.7,10 -10.32,-19.85 -10.48,-21.92 -11.27,-26.2 -12.07,-37.48 -10.96,-46.53 -10.16,-48.91 -7.14,-51.77 "/>
</g>
		<g transform="matrix(1 0 0 1 118.875 -51.2955)" id="polygon95">
<polygon style="stroke: none; stroke-width: 1; stroke-dasharray: none; stroke-linecap: butt; stroke-dashoffset: 0; stroke-linejoin: miter; stroke-miterlimit: 4; is-custom-font: none; font-file-url: none; fill: rgb(248,218,57); fill-rule: evenodd; opacity: 1;" points="-37.405,1.04 -36.285,-2.46 -35.335,-3.73 -34.225,-4.84 -33.115,-5.64 -30.885,-6.75 -29.615,-7.54 -28.505,-7.86 -27.395,-8.34 -26.125,-8.49 -25.015,-8.97 -20.405,-9.61 -9.765,-9.61 5.485,-7.22 6.595,-6.75 25.655,-3.41 28.035,-3.41 30.415,-3.09 37.405,-3.09 35.025,-3.09 -11.195,8.82 -14.685,9.29 -15.805,9.29 -18.185,9.61 -21.675,9.61 -24.055,9.29 -25.175,9.29 -26.445,8.97 -27.555,8.82 -32.315,7.07 -33.585,6.43 -34.865,5.48 -35.965,4.21 -37.405,1.04 "/>
</g>
		<g transform="matrix(1 0 0 1 118.875 -55.5805)" id="polyline97">
<polyline style="stroke: rgb(248,218,57); stroke-width: 0.1212; stroke-dasharray: none; stroke-linecap: square; stroke-dashoffset: 0; stroke-linejoin: miter; stroke-miterlimit: 10; is-custom-font: none; font-file-url: none; fill: none; fill-rule: nonzero; opacity: 1;" points="-37.405,5.325 -36.285,1.825 -35.335,0.555 -34.225,-0.555 -33.115,-1.355 -30.885,-2.465 -29.615,-3.255 -28.505,-3.575 -27.395,-4.055 -26.125,-4.205 -25.015,-4.685 -20.405,-5.325 -9.765,-5.325 5.485,-2.935 6.595,-2.465 25.655,0.875 28.035,0.875 30.415,1.195 37.405,1.195 35.025,1.195 19.935,4.205 "/>
</g>
		<g transform="matrix(1 0 0 1 110.14 -46.5305)" id="polyline99">
<polyline style="stroke: rgb(248,218,57); stroke-width: 0.1212; stroke-dasharray: none; stroke-linecap: square; stroke-dashoffset: 0; stroke-linejoin: miter; stroke-miterlimit: 10; is-custom-font: none; font-file-url: none; fill: none; fill-rule: nonzero; opacity: 1;" points="28.67,-4.845 -2.46,4.055 -5.95,4.525 -7.07,4.525 -9.45,4.845 -12.94,4.845 -15.32,4.525 -16.44,4.525 -17.71,4.205 -18.82,4.055 -23.58,2.305 -24.85,1.665 -26.13,0.715 -27.23,-0.555 -28.67,-3.725 "/>
</g>
</g>
</g>
</svg>